<?xml version="1.0" standalone="no"?><!DOCTYPE svg PUBLIC "-//W3C//DTD SVG 1.1//EN" "http://www.w3.org/Graphics/SVG/1.1/DTD/svg11.dtd"><svg t="1546942826171" class="icon" style="" viewBox="0 0 1024 1024" version="1.1" xmlns="http://www.w3.org/2000/svg" p-id="4649" xmlns:xlink="http://www.w3.org/1999/xlink" width="32" height="32"><defs><style type="text/css"></style></defs><path d="M513.209548 552.707121c21.822005 0 39.518039-17.696034 39.518039-39.520085S535.033599 473.671043 513.209548 473.671043c-21.824051 0-39.520085 17.691941-39.520085 39.515992S491.385497 552.707121 513.209548 552.707121zM513.209548 118.006647c-218.257909 0-395.181411 176.925548-395.181411 395.181411S294.952662 908.373563 513.209548 908.373563c218.256886 0 395.184481-176.928618 395.184481-395.185504S731.466434 118.006647 513.209548 118.006647zM644.287909 246.63419c5.462408-9.457396 17.551748-12.676717 26.995841-7.233752 9.453303 5.458315 12.684904 17.537422 7.234775 26.992771-5.463432 9.453303-17.543561 12.697183-26.995841 7.237845C642.068358 268.166599 638.836757 256.087493 644.287909 246.63419zM493.451552 436.948677l0-220.148979c0-10.901281 8.847505-19.756973 19.757996-19.756973 10.909467 0 19.756973 8.856715 19.756973 19.756973l0 220.148979c27.67327 7.160073 49.284473 28.886911 56.481386 56.480362l101.592816 0c10.909467 0 19.756973 8.856715 19.756973 19.757996 0 10.921747-8.848529 19.756973-19.756973 19.756973l-101.592816 0c-8.810666 34.041304-39.45357 59.279105-76.239382 59.279105-43.648103 0-79.036078-35.368532-79.036078-79.036078C434.17347 476.410434 459.420481 445.768553 493.451552 436.948677zM504.738619 646.450155l0 16.236799-9.943466 0 0-25.425066 114.790396 0 0 25.425066-9.943466 0 0-16.236799L504.738619 646.450155zM504.738619 616.745622l7.426133-5.412266c5.118578 5.622044 10.152221 11.7056 15.103999 18.250666l-8.558933 6.0416C514.010797 628.493178 509.35373 622.199845 504.738619 616.745622zM538.722618 612.970646l8.181333-4.782933c5.118578 6.712889 9.858532 13.552667 14.222933 20.516266l-9.0624 5.160533C548.372396 627.318422 543.924083 620.354823 538.722618 612.970646zM574.46875 629.961622c5.621021-6.0416 10.908444-12.544711 15.859199-19.508309l9.0624 6.670933c-5.454222 6.209422-11.287067 12.712533-17.495466 19.509333L574.46875 629.961622zM355.134323 239.400439c9.457396-5.442966 21.533432-2.224668 26.995841 7.233752 5.451152 9.454326 2.218528 21.533432-7.234775 26.992771-9.445116 5.463432-21.533432 2.218528-26.995841-7.233752C342.449419 256.933767 345.6933 244.858754 355.134323 239.400439zM216.820164 532.945031c-10.909467 0-19.756973-8.835226-19.756973-19.756973 0-10.902304 8.848529-19.757996 19.756973-19.757996 10.911514 0 19.759019 8.856715 19.757996 19.757996C236.579183 524.109806 227.730655 532.945031 216.820164 532.945031zM266.412652 678.497035c-9.454326 5.462408-21.533432 2.219551-26.992771-7.234775-5.453199-9.457396-2.222621-21.532409 7.234775-26.994818 9.445116-5.441942 21.533432-2.218528 26.984584 7.234775C279.101649 660.95859 275.857768 673.033603 266.412652 678.497035zM273.639241 374.874923c-5.451152 9.454326-17.539468 12.698207-26.984584 7.234775-9.454326-5.441942-12.688997-17.537422-7.234775-26.995841 5.459339-9.432837 17.539468-12.69309 26.992771-7.233752C275.857768 353.357863 279.101649 365.437993 273.639241 374.874923zM341.710592 710.422142c-5.852288 4.804423-14.023388 7.206122-24.512277 7.206122-8.600889 0-15.607466-2.369977-21.019733-7.111978-5.412266-4.739954-8.117888-10.886955-8.117888-18.438954 0-12.417821 6.963599-21.460778 20.893866-27.123754l0-0.252757c-11.621688-5.412266-17.433044-13.256932-17.433044-23.536043 0-7.1744 2.727111-13.016455 8.181333-17.527189 5.454222-4.508687 12.417821-6.766101 20.893866-6.766101 7.761778 0 14.159488 2.119267 19.195178 6.355755 5.034666 4.238534 7.552 9.713222 7.552 16.426111 0 10.824533-6.063089 19.153222-18.187221 24.985044l0 0.251733c14.222933 5.119601 21.334911 13.845333 21.334911 26.180266C350.489536 699.16782 347.56288 705.618742 341.710592 710.422142zM382.130164 779.741927c-5.462408 9.453303-17.541515 12.697183-26.995841 7.237845-9.441023-5.441942-12.684904-17.521049-7.233752-26.995841 5.462408-9.432837 17.550725-12.675694 26.995841-7.217379C384.349715 758.208495 387.581316 770.30909 382.130164 779.741927zM418.300968 704.567807c-5.812379 8.706289-13.960966 13.059434-24.449855 13.059434-9.902534 0-17.569144-4.13211-23.001877-12.398378-5.433756-8.264221-8.150634-20.283975-8.150634-36.059264 0-17.201777 2.852978-30.217209 8.558933-39.049365 5.704932-8.831132 13.9712-13.247722 24.795732-13.247722 20.642133 0 30.963199 16.656355 30.963199 49.968042C427.01749 683.287131 424.111301 695.862541 418.300968 704.567807zM441.9946 732.164329l-11.517311 0 46.758953-113.656573 11.517311 0L441.9946 732.164329zM513.209548 829.333392c-10.910491 0-19.757996-8.835226-19.757996-19.757996 0-10.901281 8.847505-19.756973 19.757996-19.756973 10.908444 0 19.756973 8.856715 19.756973 19.756973C532.967544 820.498166 524.119015 829.333392 513.209548 829.333392zM613.738126 697.80273l-54.122665 0 0 19.005866c0 9.901511-4.993734 14.852266-14.978133 14.852266-5.538133 0-12.042267-0.084934-19.509333-0.251733-0.251733-2.854001-0.7552-6.4192-1.5104-10.698666 6.711865 0.671289 13.132088 1.048889 19.257599 1.1328 4.362354 0.083911 6.545066-2.224668 6.545066-6.922666l0-17.117866-58.904575 0 0-9.188266 58.905598 0 0-7.048533 24.039509-13.5936-59.157331 0 0-9.187243 73.883731 0 0 10.5728-28.571732 16.488533 0 2.769067 54.122665 0L613.738126 697.80273zM633.373325 724.864062l-9.943466 0 0-104.090707 43.423999 0 0 102.580307-9.943466 0 0-10.446933-23.536043 0L633.374348 724.864062zM671.28375 786.979772c-9.445116 5.459339-21.532409 2.219551-26.995841-7.237845-5.451152-9.432837-2.219551-21.533432 7.234775-26.976398 9.453303-5.458315 21.532409-2.218528 26.995841 7.217379C683.968653 769.4577 680.737052 781.536806 671.28375 786.979772zM676.166967 662.561088l8.937556-4.5312c6.711865 12.252045 11.789511 22.026666 15.229866 29.325909-2.181689 1.006933-5.538133 2.685155-10.069333 5.034666C686.9915 684.419931 682.292478 674.476465 676.166967 662.561088zM743.632521 645.946688l-17.873066 0 0 67.716264c0 11.243065-5.371334 16.866133-16.110933 16.866133-4.866844 0-11.999288-0.125867-21.397333-0.3776-0.419556-3.0208-1.091868-6.545066-2.013867-10.5728 8.809643 0.671289 15.690354 1.006933 20.642133 1.006933 5.873778 0 8.810666-2.978844 8.810666-8.936533l0-65.701374-44.682665 0 0-9.315156 44.682665 0 0-27.816532 10.069333 0 0 27.816532 17.873066 0L743.632521 645.946688zM760.00542 347.878059c9.453303-5.459339 21.533432-2.197038 26.991748 7.233752 5.454222 9.458419 2.222621 21.553898-7.235798 26.995841-9.444093 5.463432-21.532409 2.218528-26.983561-7.234775C747.316423 365.43697 750.560304 353.357863 760.00542 347.878059zM786.999215 671.261237c-5.459339 9.455349-17.539468 12.698207-26.992771 7.234775-9.44614-5.463432-12.69002-17.538445-7.226588-26.995841 5.450129-9.454326 17.538445-12.676717 26.983561-7.234775C789.221836 649.729851 792.452413 661.803841 786.999215 671.261237zM809.596885 532.945031c-10.912537 0-19.761066-8.835226-19.761066-19.756973 0-10.902304 8.847505-19.757996 19.761066-19.757996 10.911514 0 19.757996 8.856715 19.757996 19.757996C829.354881 524.109806 820.506353 532.945031 809.596885 532.945031zM513.209548 30.187533c-266.753413 0-483.000526 216.247112-483.000526 483.000526s216.247112 483.000526 483.000526 483.000526 483.000526-216.247112 483.000526-483.000526S779.962961 30.187533 513.209548 30.187533zM513.209548 947.888532c-240.079914 0-434.701496-194.620559-434.701496-434.700473 0-240.060471 194.620559-434.700473 434.701496-434.700473 240.079914 0 434.700473 194.641025 434.700473 434.700473C947.910021 753.267972 753.289462 947.888532 513.209548 947.888532zM334.883093 641.10031c0-4.362354-1.363044-7.803733-4.090155-10.321066-2.728134-2.517333-6.4192-3.776-11.076266-3.776-4.363378 0-8.076956 1.311879-11.139711 3.932566-3.062755 2.622734-4.593622 5.967922-4.593622 10.037611 0 8.140401 5.097088 14.32731 15.292288 18.564821C329.680605 655.218866 334.883093 649.072889 334.883093 641.10031zM395.36049 627.131157c-13.382798-0.001023-20.075221 13.82282-20.075221 41.47153 0 25.886577 6.565533 38.829354 19.697621 38.829354 12.922311 0 19.383466-13.152555 19.383466-39.458687C414.367379 640.746246 408.031067 627.131157 395.36049 627.131157zM656.910391 670.994154l-23.536043 0 0 32.599466 23.536043 0L656.910391 670.994154zM656.910391 630.088512l-23.536043 0 0 31.844266 23.536043 0L656.910391 630.088512zM318.520427 670.554132c-12.041244 4.866844-18.061354 11.831466-18.061354 20.893866 0 4.699022 1.762133 8.558933 5.2864 11.579733 3.524267 3.0208 8.117888 4.5312 13.782911 4.5312 5.496178 0 9.963932-1.500167 13.405311-4.499477 3.439332-2.99931 5.160533-6.743588 5.160533-11.233855C338.093205 682.384575 331.568604 675.29511 318.520427 670.554132z" p-id="4650" fill="#bfcbd9"></path></svg>