<?xml version="1.0" standalone="no"?><!DOCTYPE svg PUBLIC "-//W3C//DTD SVG 1.1//EN" "http://www.w3.org/Graphics/SVG/1.1/DTD/svg11.dtd"><svg t="1540522944926" class="icon" style="" viewBox="0 0 1024 1024" version="1.1" xmlns="http://www.w3.org/2000/svg" p-id="6772" xmlns:xlink="http://www.w3.org/1999/xlink" width="32" height="32"><defs><style type="text/css"></style></defs><path d="M502.931972 165.074639l-12.503778-4.919033-122.178667-32.605605c-23.2444-6.071276-38.090527 2.357697-44.216038 25.324782l-145.447627 604.542696c-6.131651 23.559579 2.301416 38.387285 25.565259 44.773739l122.156154 32.562627c23.573905 6.393617 38.445614-2.335185 44.550659-25.910113l145.483442-604.198865c4.958942-18.59859 0.562818-31.697933-13.382798-39.565111L502.931972 165.074639 502.931972 165.074639zM443.586352 375.379413c-1.434675 5.511527-4.347005 10.201339-8.679683 13.950733-4.045129 3.207042-8.110725 4.092201-11.855002 3.214205l-0.106424 0-0.86367 0-0.020466 0-110.817921-29.950126c-4.333702-1.167592-7.260357-4.033873-8.983605-9.003048-1.026376-2.466168-1.616824-5.109368-1.731434-7.80578-0.173962-2.669806 0.11461-5.439896 0.831948-8.237615 1.456165-5.7694 4.339842-10.172687 8.733918-13.385868 3.756557-3.751441 8.156774-4.91801 12.524245-3.751441l110.812805 29.964452 0.563842 0c0.73678 0.261966 1.272993 0.886183 1.944282 1.281179 2.77009 1.616824 5.139044 4.013407 6.801916 8.013511 1.033539 2.332115 1.623987 4.797259 1.744737 7.430226C444.613752 369.722576 444.318016 372.47834 443.586352 375.379413L443.586352 375.379413zM462.28318 302.274418c-0.158612 1.570775-0.158612 3.099594-0.655939 4.756327-1.013073 3.990894-3.133364 7.293103-5.683443 10.133801-1.004887 1.095961-1.832741 2.343371-3.039219 3.235694-1.179872 1.087774-2.39556 1.562589-3.595898 2.182712-2.717901 1.445932-5.40715 2.183735-8.029884 1.587148l-0.603751 0-110.797455-29.664623c-4.368494-1.421372-7.580652-4.635577-9.627265-9.605775-1.428535-3.536546-1.534959-7.266497-1.119497-11.103896 0.162706-1.528819 0.162706-3.025916 0.557702-4.622274 0.529049-1.63729 1.313925-2.981914 2.012843-4.448312 1.729387-3.660366 3.810792-6.922666 6.720052-9.216919 4.105504-3.475148 8.44023-4.64888 12.787234-3.166109l110.818945 29.658484 0.549515 0c2.51017 0.942465 4.393054 2.87856 6.024204 5.178953 0.87902 1.193175 1.76418 2.354628 2.448772 3.843538 1.025353 2.465145 1.610684 5.01113 1.696642 7.667633C462.819392 299.862485 462.41007 301.086359 462.28318 302.274418L462.28318 302.274418zM668.833443 186.79022c-2.348488 5.51869-3.501754 11.904121-3.501754 19.203364l0 626.977661c0 7.572466 1.153266 13.960966 3.501754 19.224854 2.587941 5.160533 5.809309 7.81192 9.552563 7.81192 3.831258 0 6.742565-2.63706 9.338692-7.81192 2.615571-5.26491 4.045129-11.652388 4.045129-19.224854L691.769828 205.993584c0-7.299243-1.428535-13.684674-4.045129-19.203364-2.610454-5.270027-5.507434-7.875365-9.338692-7.875365C674.642752 178.914856 671.422408 181.505867 668.833443 186.79022L668.833443 186.79022zM652.798235 205.993584c0-7.265474-1.131777-13.650905-3.486404-19.203364-2.891863-5.229095-6.106068-7.835456-9.895371-7.835456-3.76372 0-6.642281 2.606361-9.311063 7.835456-2.588965 5.552459-4.025687 11.936867-4.025687 19.203364l0 626.977661c0 7.547907 1.435699 13.960966 4.025687 19.199271 2.669806 5.218862 5.547343 7.837502 9.311063 7.837502 3.804652 0 7.003508-2.617617 9.895371-7.837502 2.354628-5.239328 3.486404-11.652388 3.486404-19.199271L652.798235 205.993584 652.798235 205.993584zM824.42408 186.79022c-2.348488 5.51869-3.470031 11.904121-3.470031 19.203364l0 626.977661c0 7.572466 1.121544 13.960966 3.456728 19.224854 2.622734 5.160533 5.821589 7.81192 9.565866 7.81192 3.851725 0 6.760984-2.63706 9.351995-7.81192 2.602268-5.26491 4.018523-11.652388 4.018523-19.224854L847.347163 205.993584c0-7.299243-1.428535-13.684674-4.018523-19.203364-2.602268-5.270027-5.502317-7.875365-9.351995-7.875365-3.743254 0-6.943133 2.593058-9.565866 7.875365L824.42408 186.79022 824.42408 186.79022zM808.423665 205.993584c0-7.265474-1.12666-13.650905-3.507894-19.203364-2.891863-5.229095-6.107091-7.835456-9.881045-7.835456-3.75758 0-6.670933 2.606361-9.332553 7.835456-2.582825 5.552459-4.040013 11.936867-4.040013 19.203364l0 626.977661c0 7.547907 1.463328 13.960966 4.040013 19.199271 2.662643 5.218862 5.561669 7.837502 9.332553 7.837502 3.773953 0 6.990205-2.617617 9.881045-7.837502 2.381234-5.239328 3.507894-11.652388 3.507894-19.199271L808.423665 205.993584 808.423665 205.993584zM595.228051 182.131107c-5.5279-5.225001-11.908214-7.869225-19.23304-7.869225-7.532557 0-13.934361 2.6432-19.427468 7.869225-5.258771 5.253654-7.841595 11.653411-7.841595 19.210527l0 631.333876c0 7.547907 2.582825 13.945617 7.841595 19.199271 5.494131 5.480828 11.894911 8.132214 19.427468 8.132214 7.324826 0 13.70514-2.63706 19.23304-8.132214 5.265934-5.253654 7.882528-11.653411 7.882528-19.199271l-0.001023-631.333876C603.109556 193.790658 600.492962 187.384761 595.228051 182.131107L595.228051 182.131107 595.228051 182.131107zM717.97363 182.131107c-5.212722 5.253654-7.848759 11.653411-7.848759 19.210527l0 631.333876c0 7.547907 2.636037 13.945617 7.848759 19.199271 5.508457 5.480828 11.900028 8.132214 19.206434 8.132214 7.580652 0 13.959943-2.63706 19.495006-8.132214 5.212722-5.253654 7.836479-11.653411 7.836479-19.199271L764.511549 201.341634c0-7.549953-2.623757-13.956873-7.836479-19.210527-5.53404-5.218862-11.901051-7.869225-19.495006-7.869225C729.861378 174.262906 723.48311 176.912245 717.97363 182.131107L717.97363 182.131107 717.97363 182.131107z" p-id="6773" fill="#bfcbd9"></path></svg>